<?xml version="1.0" standalone="no"?>
<!DOCTYPE svg PUBLIC "-//W3C//DTD SVG 20010904//EN"
 "http://www.w3.org/TR/2001/REC-SVG-20010904/DTD/svg10.dtd">
<svg version="1.0" xmlns="http://www.w3.org/2000/svg"
 width="15.000000pt" height="22.000000pt" viewBox="0 0 15.000000 22.000000"
 preserveAspectRatio="xMidYMid meet">
<metadata>
Created by potrace 1.16, written by Peter Selinger 2001-2019
</metadata>
<g transform="translate(0.000000,22.000000) scale(0.100000,-0.100000)"
fill="#000000" stroke="none">
<path d="M0 121 l0 -99 34 -12 c31 -10 38 -9 60 11 14 13 26 33 26 46 0 33
-28 29 -33 -4 -3 -23 -4 -21 -6 10 -1 31 2 37 19 37 11 0 20 -4 20 -10 0 -16
20 -12 27 5 3 9 -1 23 -10 33 -8 9 -17 31 -19 47 -3 29 -5 30 -60 33 l-58 3 0
-100z"/>
</g>
</svg>
