<?xml version="1.0" standalone="no"?>
<!DOCTYPE svg PUBLIC "-//W3C//DTD SVG 20010904//EN"
 "http://www.w3.org/TR/2001/REC-SVG-20010904/DTD/svg10.dtd">
<svg version="1.0" xmlns="http://www.w3.org/2000/svg"
 width="22.000000pt" height="22.000000pt" viewBox="0 0 22.000000 22.000000"
 preserveAspectRatio="xMidYMid meet">
<metadata>
Created by potrace 1.16, written by Peter Selinger 2001-2019
</metadata>
<g transform="translate(0.000000,22.000000) scale(0.100000,-0.100000)"
fill="#000000" stroke="none">
<path d="M105 210 c3 -5 -1 -10 -9 -10 -12 0 -16 -10 -16 -36 0 -29 -8 -44
-40 -76 -48 -48 -54 -88 -15 -88 14 0 25 4 25 8 0 5 11 15 25 22 14 7 25 19
25 26 0 14 23 24 56 24 49 0 64 17 64 68 0 27 -5 53 -12 60 -15 15 -112 17
-103 2z"/>
</g>
</svg>
