<?xml version="1.0" standalone="no"?>
<!DOCTYPE svg PUBLIC "-//W3C//DTD SVG 20010904//EN"
 "http://www.w3.org/TR/2001/REC-SVG-20010904/DTD/svg10.dtd">
<svg version="1.0" xmlns="http://www.w3.org/2000/svg"
 width="24.000000pt" height="24.000000pt" viewBox="0 0 24.000000 24.000000"
 preserveAspectRatio="xMidYMid meet">
<metadata>
Created by potrace 1.16, written by Peter Selinger 2001-2019
</metadata>
<g transform="translate(0.000000,24.000000) scale(0.100000,-0.100000)"
fill="#000000" stroke="none">
<path d="M35 207 c-30 -30 -35 -42 -35 -80 0 -53 24 -117 45 -117 8 0 19 9 25
20 9 16 14 18 29 8 11 -7 26 -8 37 -3 11 4 24 7 31 6 10 -1 30 23 31 39 1 3 4
13 8 24 4 10 2 26 -4 36 -5 9 -7 22 -2 29 10 17 20 -10 20 -56 0 -25 -8 -43
-29 -64 -28 -28 -48 -34 -98 -29 -13 1 -23 -3 -23 -9 0 -7 21 -11 51 -11 45 0
55 4 85 34 29 29 34 41 34 79 0 63 -25 121 -51 114 -10 -3 -19 -2 -19 2 0 4
-23 8 -50 10 -46 2 -54 -1 -85 -32z"/>
</g>
</svg>
