<?xml version="1.0" standalone="no"?>
<!DOCTYPE svg PUBLIC "-//W3C//DTD SVG 20010904//EN"
 "http://www.w3.org/TR/2001/REC-SVG-20010904/DTD/svg10.dtd">
<svg version="1.0" xmlns="http://www.w3.org/2000/svg"
 width="19.000000pt" height="22.000000pt" viewBox="0 0 19.000000 22.000000"
 preserveAspectRatio="xMidYMid meet">
<metadata>
Created by potrace 1.16, written by Peter Selinger 2001-2019
</metadata>
<g transform="translate(0.000000,22.000000) scale(0.100000,-0.100000)"
fill="#000000" stroke="none">
<path d="M34 185 c-18 -43 -18 -54 1 -76 15 -15 14 -17 -10 -23 -21 -5 -25
-12 -25 -46 l0 -40 96 0 95 0 -3 43 c-2 35 -7 43 -25 45 -26 4 -31 22 -7 22
14 0 16 7 11 40 -7 57 -22 70 -74 70 -41 0 -45 -3 -59 -35z"/>
</g>
</svg>
