<?xml version="1.0" standalone="no"?>
<!DOCTYPE svg PUBLIC "-//W3C//DTD SVG 20010904//EN"
 "http://www.w3.org/TR/2001/REC-SVG-20010904/DTD/svg10.dtd">
<svg version="1.0" xmlns="http://www.w3.org/2000/svg"
 width="22.000000pt" height="22.000000pt" viewBox="0 0 22.000000 22.000000"
 preserveAspectRatio="xMidYMid meet">
<metadata>
Created by potrace 1.16, written by Peter Selinger 2001-2019
</metadata>
<g transform="translate(0.000000,22.000000) scale(0.100000,-0.100000)"
fill="#000000" stroke="none">
<path d="M50 205 c-10 -12 -10 -27 -1 -72 6 -31 10 -57 8 -58 -1 0 -14 -6 -29
-13 -20 -8 -28 -19 -28 -37 l0 -25 110 0 110 0 0 26 c0 19 -7 28 -30 37 -28
11 -30 14 -23 47 4 19 8 51 8 70 l0 35 -56 3 c-41 2 -59 -1 -69 -13z"/>
</g>
</svg>
